<?xml version="1.0" standalone="no"?>
 <!DOCTYPE svg PUBLIC "-//W3C//DTD SVG 1.1//EN" 
 "http://www.w3.org/Graphics/SVG/1.1/DTD/svg11.dtd"> 
<svg
  xmlns:svg="http://www.w3.org/2000/svg"
  xmlns="http://www.w3.org/2000/svg"
  xmlns:xlink="http://www.w3.org/1999/xlink"
  version="1.1"
  width="50.1904mm" height="50.1904mm" viewBox="0.0000 0.0000 50.1904 50.1904">
<title>SVG Image created as KICAD_TEST预研文件7_版图3圆-brd.svg date 2024/09/13 13:58:51 </title>
  <desc>Image generated by PCBNEW </desc>
<g style="fill:#000000; fill-opacity:1.0000;stroke:#000000; stroke-opacity:1.0000;
stroke-linecap:round; stroke-linejoin:round;"
 transform="translate(0 0) scale(1 1)">
</g>
<g style="fill:none; 
stroke:#000000; stroke-width:0.2000; stroke-opacity:1; 
stroke-linecap:round; stroke-linejoin:round;">
<circle cx="5.1000" cy="25.1000" r="1.0000" /> 
<path d="M25.1000 0.1000 A25.0000 25.0000 0.0 0 0 25.1000 50.1000" />
<path d="M40.1000 5.1000 A5.0000 5.0000 0.0 0 0 45.1000 10.1000" />
<circle cx="45.1000" cy="25.1000" r="1.0000" /> 
<path d="M45.1000 40.1000 A25.0000 25.0000 0.0 0 0 50.1000 25.1000" />
<path d="M50.1000 25.1000 A25.0000 25.0000 0.0 0 0 45.1000 10.1000" />
<path d="M45.1000 40.1000 A5.0000 5.0000 0.0 0 0 40.1000 45.1000" />
<path d="M25.1000 50.1000 A25.0000 25.0000 0.0 0 0 40.1000 45.1000" />
<path d="M40.1000 5.1000 A25.0000 25.0000 0.0 0 0 25.1000 0.1000" />
</g> 
</svg>
