<?xml version="1.0" standalone="no"?>
 <!DOCTYPE svg PUBLIC "-//W3C//DTD SVG 1.1//EN" 
 "http://www.w3.org/Graphics/SVG/1.1/DTD/svg11.dtd"> 
<svg
  xmlns:svg="http://www.w3.org/2000/svg"
  xmlns="http://www.w3.org/2000/svg"
  xmlns:xlink="http://www.w3.org/1999/xlink"
  version="1.1"
  width="39.5986mm" height="40.1828mm" viewBox="0.0000 0.0000 39.5986 40.1828">
<title>SVG Image created as KICAD_TEST预研文件6_版图2圆-brd.svg date 2024/09/13 13:57:08 </title>
  <desc>Image generated by PCBNEW </desc>
<g style="fill:#000000; fill-opacity:1.0000;stroke:#000000; stroke-opacity:1.0000;
stroke-linecap:round; stroke-linejoin:round;"
 transform="translate(0 0) scale(1 1)">
</g>
<g style="fill:none; 
stroke:#000000; stroke-width:0.2000; stroke-opacity:1; 
stroke-linecap:round; stroke-linejoin:round;">
<path d="M0.1000 20.1000 A20.0000 20.0000 0.0 0 0 20.1000 40.1000" />
<path d="M20.1000 0.1000 A20.0000 20.0000 0.0 0 0 0.1000 20.1000" />
<circle cx="30.1000" cy="6.1000" r="1.0000" /> 
<path d="M20.1000 40.1000 A20.0000 20.0000 0.0 0 0 39.5028 24.9507" />
<path d="M39.5029 15.2493 A7.4066 7.4066 0.0 0 0 39.5029 24.9507" />
<circle cx="10.1000" cy="6.1000" r="1.0000" /> 
<path d="M39.5028 15.2493 A20.0000 20.0000 0.0 0 0 20.1000 0.1000" />
<circle cx="20.1000" cy="38.1000" r="1.0000" /> 
</g> 
</svg>
